<svg width="202" height="132" viewBox="0 0 202 132" fill="none" xmlns="http://www.w3.org/2000/svg">
<path d="M201.995 66.0002C201.988 78.1294 198.67 90.0228 192.403 100.377C186.137 110.731 177.164 119.146 166.467 124.701C165.841 125.032 165.205 125.347 164.564 125.653C164.276 125.795 163.993 125.928 163.7 126.06C161.873 126.905 159.998 127.663 158.075 128.335C156.561 128.87 155.005 129.353 153.435 129.771C138.603 133.753 122.856 132.371 108.93 125.866C108.359 125.597 107.789 125.322 107.228 125.037C96.8012 119.779 87.956 111.81 81.6064 101.953C75.2569 92.0957 71.6334 80.7083 71.1102 68.9672C70.587 57.2261 73.1831 45.557 78.6303 35.1658C84.0775 24.7745 92.1783 16.038 102.096 9.8588C112.013 3.67961 123.387 0.281924 135.043 0.0168C146.698 -0.248324 158.213 2.62873 168.396 8.35069C178.58 14.0727 187.063 22.432 192.97 32.565C198.877 42.698 201.992 54.2371 201.995 65.9901V66.0002Z" fill="url(#paint0_linear_2312_38)"/>
<path d="M110.854 106.742L103.623 95.3556C103.623 95.3556 123.654 72.0118 125.658 70.6324C125.658 70.6324 115.554 87.7203 110.854 106.742Z" fill="url(#paint1_linear_2312_38)"/>
<path d="M103.623 95.3556L89.9896 107.572L64.9093 95.3556L45.7217 96.4144C45.7217 96.4144 57.6736 100.487 61.0364 100.319L64.4044 100.151C64.4044 100.151 85.0008 120.171 89.7372 121.698C94.4735 123.225 110.031 111.252 110.031 111.252L110.934 106.778L103.623 95.3556Z" fill="url(#paint2_linear_2312_38)"/>
<path d="M141.241 67.8684C139.346 68.7931 137.309 69.3853 135.217 69.6194C132.798 69.9859 129.122 68.6319 129.122 68.6319C131.899 66.4278 131.253 61.2307 131.253 61.2307L131.314 61.2002C134.278 60.9711 136.757 59.276 138.489 57.637C137.863 62.0859 141.241 67.8684 141.241 67.8684Z" fill="url(#paint3_linear_2312_38)"/>
<path d="M141.241 51.3149V54.3691C140.452 55.5556 139.53 56.6469 138.494 57.6217C136.762 59.2659 134.283 60.9609 131.319 61.1849C129.972 61.2886 128.62 61.0886 127.36 60.5995C119.281 57.5454 124.962 41.3839 124.962 41.3839C127.527 34.8073 139.14 37.9887 139.14 37.9887C140.695 39.8568 140.993 45.0743 140.933 45.5833C140.674 46.2985 140.335 46.9815 139.923 47.6194C139.923 47.6194 142.13 45.5222 142.887 46.9169C143.644 48.3117 141.241 51.3149 141.241 51.3149Z" fill="url(#paint4_linear_2312_38)"/>
<path d="M141.241 54.3792V51.3251C141.241 51.3251 143.639 48.3473 142.882 46.9424C142.124 45.5375 139.918 47.6449 139.918 47.6449C140.33 47.007 140.669 46.3239 140.928 45.6088C140.988 45.0997 140.736 40.1775 139.135 38.0141C139.135 38.0141 127.522 34.8327 124.956 41.4093C124.956 41.4093 121.634 40.5593 118.771 36.5736C114.09 30.053 119.68 29.2538 125.219 30.5111C131.94 32.0382 138.676 27.0294 146.376 32.1196C154.076 37.2099 147.174 48.78 141.241 54.3792Z" fill="#262F72"/>
<path d="M158.706 92.4593C162.16 102.823 164.72 114.821 166.467 124.701C165.841 125.032 165.205 125.347 164.564 125.653C164.276 125.795 163.993 125.928 163.7 126.06C161.872 126.905 159.997 127.663 158.075 128.335C156.561 128.87 155.005 129.353 153.435 129.771C138.603 133.753 122.856 132.371 108.93 125.867C108.359 125.597 107.789 125.322 107.228 125.037C108.238 119.809 109.44 113.665 110.848 106.748C111.36 104.24 111.897 101.63 112.459 98.9188C115.352 85.0276 119.503 77.4635 122.932 73.3658L122.967 73.3251C123.618 72.5461 124.324 71.8147 125.078 71.1363C125.099 71.1117 125.122 71.0895 125.148 71.0701C125.32 70.9174 125.492 70.7749 125.653 70.6375C127.718 68.9424 129.122 68.6319 129.122 68.6319L129.248 68.6777H129.319C130.416 69.1138 131.565 69.3997 132.738 69.5278H132.934H132.965C133.713 69.6 134.466 69.6119 135.217 69.5634H135.262C137.346 69.4295 139.376 68.8389 141.21 67.8327V67.8327C143.361 68.5499 145.387 69.6028 147.214 70.9531C152.435 74.8165 162.953 88.9827 162.953 88.9827L158.706 92.4593Z" fill="url(#paint5_linear_2312_38)"/>
<path d="M177.94 111.802C177.909 113.217 176.632 116.088 174.764 119.57C172.128 121.487 169.353 123.202 166.463 124.701C165.836 125.032 165.2 125.347 164.559 125.653C164.271 125.795 163.988 125.928 163.695 126.06C161.868 126.905 159.993 127.663 158.07 128.335L162.948 112.662L150.325 99.3006L158.702 92.4593L162.948 88.9929C162.948 88.9929 178.071 106.33 177.94 111.802Z" fill="url(#paint6_linear_2312_38)"/>
<path fill-rule="evenodd" clip-rule="evenodd" d="M52.2179 108.989L0 106.06V78.5037L52.2179 81.4326V108.989Z" fill="#8F97B9"/>
<path fill-rule="evenodd" clip-rule="evenodd" d="M52.2179 81.4659L0 78.4939L47.7123 62.0002L99.9302 64.9722L52.2179 81.4659Z" fill="#E5E8F5"/>
<path fill-rule="evenodd" clip-rule="evenodd" d="M99.9393 86.8966L52.243 108.943L52.2227 81.466L99.9251 64.8492L99.9393 86.8966Z" fill="#BBC0D6"/>
<defs>
<linearGradient id="paint0_linear_2312_38" x1="136.788" y1="7.16766" x2="134.512" y2="137.263" gradientUnits="userSpaceOnUse">
<stop stop-color="white" stop-opacity="0"/>
<stop offset="1" stop-color="#64B5F6" stop-opacity="0.6"/>
</linearGradient>
<linearGradient id="paint1_linear_2312_38" x1="116.231" y1="68.2094" x2="112.383" y2="103.453" gradientUnits="userSpaceOnUse">
<stop stop-color="#42A5F5"/>
<stop offset="1" stop-color="#1565C0"/>
</linearGradient>
<linearGradient id="paint2_linear_2312_38" x1="72.5339" y1="105.322" x2="114.455" y2="110.834" gradientUnits="userSpaceOnUse">
<stop stop-color="#FFE082"/>
<stop offset="1" stop-color="#FFA726"/>
</linearGradient>
<linearGradient id="paint3_linear_2312_38" x1="9427.78" y1="2544.52" x2="9430.77" y2="2315.66" gradientUnits="userSpaceOnUse">
<stop stop-color="#FFE082"/>
<stop offset="1" stop-color="#FFA726"/>
</linearGradient>
<linearGradient id="paint4_linear_2312_38" x1="14997.3" y1="4075.82" x2="15790.5" y2="4075.82" gradientUnits="userSpaceOnUse">
<stop stop-color="#FFE082"/>
<stop offset="1" stop-color="#FFA726"/>
</linearGradient>
<linearGradient id="paint5_linear_2312_38" x1="42958.6" y1="15103.6" x2="48857.7" y2="20773.6" gradientUnits="userSpaceOnUse">
<stop stop-color="#42A5F5"/>
<stop offset="1" stop-color="#1565C0"/>
</linearGradient>
<linearGradient id="paint6_linear_2312_38" x1="23019.9" y1="12265.9" x2="22616.5" y2="9747.27" gradientUnits="userSpaceOnUse">
<stop stop-color="#FFE082"/>
<stop offset="1" stop-color="#FFA726"/>
</linearGradient>
</defs>
</svg>
