<svg width="516" height="544" viewBox="0 0 516 544" fill="none" xmlns="http://www.w3.org/2000/svg">
<mask id="mask0_1_29" style="mask-type:luminance" maskUnits="userSpaceOnUse" x="0" y="0" width="516" height="543">
<path d="M515.117 0H0V542.634H515.117V0Z" fill="white"/>
</mask>
<g mask="url(#mask0_1_29)">
<path d="M448.307 117.393C464.825 115.066 478.875 100.722 480.838 84.184C479.436 98.4248 493.048 111.881 506.314 117.298C499.521 117.681 488.741 123.55 485.257 129.385C481.775 135.221 480.477 142.093 479.837 148.854C479.473 132.091 464.474 116.974 448.305 117.393H448.307Z" stroke="#010101" stroke-width="1.5" stroke-linecap="round" stroke-linejoin="round"/>
<path d="M1.548 302.283C11.7132 300.851 20.3614 292.023 21.5688 281.846C20.706 290.609 29.0838 298.891 37.249 302.225C33.0694 302.462 26.4336 306.072 24.2912 309.664C22.1488 313.255 21.35 317.484 20.9558 321.646C20.7308 311.331 11.4985 302.027 1.548 302.283Z" stroke="#010101" stroke-width="1.5" stroke-linecap="round" stroke-linejoin="round"/>
<path d="M263.166 12.9385C266.786 22.745 270.877 32.3783 275.418 41.7953" stroke="#010101" stroke-width="1.5" stroke-linecap="round" stroke-linejoin="round"/>
<path d="M336.345 32.4236C341.759 23.699 350.314 10.268 355.726 1.54544" stroke="#010101" stroke-width="1.5" stroke-linecap="round" stroke-linejoin="round"/>
<path d="M137.186 187.849C132.255 175.562 127.264 161.98 131.466 149.425C133.423 143.579 137.242 138.532 141.427 133.999C161.203 112.581 245.775 80.7057 278.646 68.6944C295.92 62.3828 313.447 67.3509 326.199 88.0724C351.326 128.907 412.571 282.264 444.877 377.606C447.203 384.468 449.531 391.849 447.576 398.824C445.721 405.445 440.321 410.448 434.73 414.458C425.807 420.856 415.849 425.649 405.859 430.215C365.439 448.691 343.433 456.385 300.63 468.359C292.743 470.566 284.38 472.664 276.467 470.558C263.973 467.232 256.563 454.751 250.547 443.325C213.872 373.66 135.987 186.386 137.186 187.849Z" fill="#5EC7F2" stroke="#010101" stroke-width="1.5" stroke-linecap="round" stroke-linejoin="round"/>
<path d="M154.082 194.748C149.688 183.798 143.712 169.409 147.459 158.224C149.203 153.014 152.604 148.518 156.334 144.479C173.954 125.394 247.148 97.8252 276.436 87.1224C285.713 83.7327 298.229 78.7522 314.752 100.562C338.349 131.712 385.607 257.819 413.981 341.556C416.053 347.67 418.127 354.245 416.385 360.462C414.732 366.361 409.921 370.818 404.938 374.392C396.988 380.093 388.113 384.363 379.213 388.433C343.198 404.895 325.755 410.918 287.614 421.588C280.586 423.553 273.135 425.425 266.083 423.547C254.949 420.584 248.349 409.463 242.989 399.282C210.311 337.208 153.013 193.444 154.082 194.748Z" fill="white" stroke="#010101" stroke-width="1.5" stroke-linecap="round" stroke-linejoin="round"/>
<path d="M213.073 179.06C203.657 188.461 198.759 201.678 196.608 214.798C192.872 237.586 199.314 262.521 215.987 278.528C223.255 285.505 232.192 290.632 241.678 294.046C264.089 302.114 289.835 300.401 310.987 289.46C335.47 276.795 337.551 258.73 339.173 250.992C343.468 230.483 342.017 205.405 327.796 187.67C309.932 165.392 261.298 130.912 213.071 179.058L213.073 179.06Z" fill="#55D087" stroke="#010101" stroke-width="1.5" stroke-linecap="round" stroke-linejoin="round"/>
<path d="M359.095 74.4311C371.607 73.3184 384.071 71.6864 396.447 69.5393" stroke="#010101" stroke-width="1.5" stroke-linecap="round" stroke-linejoin="round"/>
<path d="M294.093 181.426C291.608 212.244 287.627 242.941 282.167 273.374C265.11 269.814 248.056 266.253 232.237 262.317C233.059 255.647 235.711 251.347 237.585 244.132C246.64 245.777 254.652 246.683 265.358 249.403C269.358 226.419 273.358 203.437 277.358 180.453C282.966 180.903 288.576 181.352 294.093 181.426Z" fill="white" stroke="#010101" stroke-width="1.5" stroke-linecap="round" stroke-linejoin="round"/>
<path d="M61.3421 490.039C96.5622 413.257 132.255 335.687 184.311 269.121C188.862 263.302 196.059 256.941 202.662 260.265C209.31 263.611 208.396 273.286 206.132 280.366C199.773 300.255 200.404 303.268 192.043 320.88C200.377 338.152 206.92 357.128 217.18 372.654C220.476 380.099 223.771 387.546 226.053 394.699C221.242 412.853 216.029 430.914 209.771 448.623C198.567 480.321 184.068 510.74 169.597 541.088" fill="white"/>
<path d="M61.3421 490.039C96.5622 413.257 132.255 335.687 184.311 269.121C188.862 263.302 196.059 256.941 202.662 260.265C209.31 263.611 208.396 273.286 206.132 280.366C199.772 300.255 200.404 303.268 192.043 320.88C200.377 338.152 206.92 357.128 217.18 372.654C220.476 380.099 223.771 387.546 226.053 394.699C221.242 412.853 216.029 430.914 209.771 448.623C198.567 480.321 184.068 510.74 169.597 541.088" stroke="#010101" stroke-width="1.5" stroke-linecap="round" stroke-linejoin="round"/>
<path d="M192.214 321.875C188.757 327.985 185.298 334.094 181.84 340.204C185.488 341.36 188.216 344.43 190.171 347.713C194.447 354.892 195.836 363.493 195.541 371.843C195.246 380.19 193.364 388.391 191.49 396.533" stroke="#010101" stroke-width="1.5" stroke-linecap="round" stroke-linejoin="round"/>
<path d="M356.379 412.162C352.482 410.986 343.86 413.644 341.708 419.212C339.522 424.864 342.319 431.798 347.545 434.874C349.132 435.81 350.95 436.438 352.791 436.36C359.377 436.082 366.457 432.719 365.912 425.433C365.545 420.524 364.434 414.592 356.379 412.162Z" fill="white" stroke="#010101" stroke-width="1.5" stroke-linecap="round" stroke-linejoin="round"/>
<path d="M429.108 504.754C400.509 478.407 360.158 425.95 329.615 383.293C321.511 371.976 305.15 350.231 315.753 347.523C322.077 345.908 328.126 350.651 333.074 355.09C345.173 365.943 357.27 376.796 369.369 387.649C347.72 349.382 293.249 251.761 308.504 237.823C313.645 233.125 320.785 240.436 323.951 246.772C343.419 285.736 358.35 312.796 377.817 351.76C365.627 330.849 351.353 294.419 361.342 287.871C370.82 281.656 372.779 296.882 378.057 307.636C383.334 318.39 391.097 330.165 398.23 343.171C385.425 322.324 364.967 285.118 378.209 280.815C389.32 277.207 405.376 316.849 417.619 333.967C406.579 321.211 387.058 280.937 397.287 275.464C408.856 269.274 428.418 308.211 437.18 327.373C428.406 314.065 407.357 273.065 422.468 269.83C430.693 268.068 435.845 279.612 439.888 287.115C477.075 356.139 466.883 401.287 513.569 457.108" fill="white"/>
<path d="M429.108 504.754C400.509 478.407 360.158 425.95 329.615 383.293C321.511 371.976 305.15 350.231 315.753 347.523C322.077 345.908 328.126 350.651 333.074 355.09C345.173 365.943 357.27 376.796 369.369 387.649C347.72 349.382 293.249 251.761 308.504 237.823C313.645 233.125 320.785 240.436 323.951 246.772C343.419 285.736 358.35 312.796 377.817 351.76C365.627 330.849 351.353 294.419 361.342 287.871C370.82 281.656 372.779 296.882 378.057 307.636C383.334 318.39 391.097 330.165 398.23 343.171C385.425 322.324 364.967 285.118 378.209 280.815C389.32 277.207 405.376 316.849 417.619 333.967C406.579 321.211 387.058 280.937 397.287 275.464C408.856 269.274 428.418 308.211 437.18 327.373C428.406 314.065 407.357 273.065 422.468 269.83C430.693 268.068 435.845 279.612 439.888 287.115C477.075 356.139 466.883 401.287 513.569 457.108" stroke="#010101" stroke-width="1.5" stroke-linecap="round" stroke-linejoin="round"/>
<path d="M434.437 446.096C430.577 453.158 430.637 462.297 436.327 467.995C442.018 473.692 450.883 475.372 458.794 473.843C463.898 472.856 469.147 470.286 471.29 465.557C473.191 461.355 472.231 456.459 470.994 452.019C469.938 448.219 468.608 444.314 465.797 441.545C461.853 437.66 442.835 430.733 434.437 446.096Z" stroke="#010101" stroke-width="1.5" stroke-linecap="round" stroke-linejoin="round"/>
<path d="M460.064 438.328C467.003 433.9 482.223 425.233 489.16 420.805" stroke="#010101" stroke-width="1.5" stroke-linecap="round" stroke-linejoin="round"/>
<path d="M472.363 455.476C478.949 451.975 492.025 442.556 497.864 437.916" stroke="#010101" stroke-width="1.5" stroke-linecap="round" stroke-linejoin="round"/>
<path d="M404.691 479.328C415.161 470.727 418.092 466.816 431.764 456.527" stroke="#010101" stroke-width="1.5" stroke-linecap="round" stroke-linejoin="round"/>
<path d="M418.938 493.804C428.348 486.305 432.412 481.856 441.822 474.356" stroke="#010101" stroke-width="1.5" stroke-linecap="round" stroke-linejoin="round"/>
<path d="M447.153 443.852L450.879 456.406C454.167 454.324 457.455 452.243 460.743 450.162" stroke="#010101" stroke-width="1.5" stroke-linecap="round" stroke-linejoin="round"/>
</g>
</svg>
