<svg width="34" height="34" viewBox="0 0 34 34" fill="none" xmlns="http://www.w3.org/2000/svg">
<path d="M15.6116 28.6875H10.625C9.56246 28.6875 8.78329 28.645 8.11746 28.5458C3.39996 28.0217 2.47913 25.2167 2.47913 20.5417V13.4583C2.47913 8.78333 3.41413 5.96417 8.15996 5.44C8.78329 5.355 9.56246 5.3125 10.625 5.3125H15.5266C16.1075 5.3125 16.5891 5.79417 16.5891 6.375C16.5891 6.95583 16.1075 7.4375 15.5266 7.4375H10.625C9.66163 7.4375 8.98163 7.48 8.42913 7.55083C5.55329 7.8625 4.60413 8.76917 4.60413 13.4583V20.5417C4.60413 25.2308 5.55329 26.1233 8.38663 26.4492C8.98163 26.5342 9.66163 26.5625 10.625 26.5625H15.6116C16.1925 26.5625 16.6741 27.0442 16.6741 27.625C16.6741 28.2058 16.1925 28.6875 15.6116 28.6875Z" fill="#4A99D3"/>
<path d="M23.375 28.6875H21.2783C20.6975 28.6875 20.2158 28.2058 20.2158 27.625C20.2158 27.0442 20.6975 26.5625 21.2783 26.5625H23.375C24.3383 26.5625 25.0183 26.52 25.5708 26.4492C28.4467 26.1375 29.3958 25.2308 29.3958 20.5417V13.4583C29.3958 8.76917 28.4467 7.87667 25.6133 7.55083C25.0183 7.46583 24.3383 7.4375 23.375 7.4375H21.2783C20.6975 7.4375 20.2158 6.95583 20.2158 6.375C20.2158 5.79417 20.6975 5.3125 21.2783 5.3125H23.375C24.4375 5.3125 25.2167 5.355 25.8825 5.45417C30.6 5.97833 31.5208 8.78333 31.5208 13.4583V20.5417C31.5208 25.2167 30.5858 28.0358 25.84 28.56C25.2167 28.645 24.4375 28.6875 23.375 28.6875Z" fill="#4A99D3"/>
<path d="M21.25 32.2292C20.6692 32.2292 20.1875 31.7475 20.1875 31.1667V2.83334C20.1875 2.2525 20.6692 1.77084 21.25 1.77084C21.8308 1.77084 22.3125 2.2525 22.3125 2.83334V31.1667C22.3125 31.7475 21.8308 32.2292 21.25 32.2292Z" fill="#4A99D3"/>
<path d="M9.49162 18.4167C9.30745 18.4167 9.12328 18.3742 8.95328 18.3033C8.78329 18.2325 8.62745 18.1333 8.48578 18.0058C8.35828 17.8642 8.24495 17.7083 8.17412 17.5383C8.10328 17.3683 8.07495 17.1842 8.07495 17C8.07495 16.6317 8.23078 16.2633 8.48578 15.9942C9.00995 15.47 9.95912 15.47 10.4975 15.9942C10.7525 16.2633 10.9083 16.6317 10.9083 17C10.9083 17.1842 10.8658 17.3683 10.795 17.5383C10.7241 17.7083 10.625 17.8642 10.4975 18.0058C10.3558 18.1333 10.2 18.2325 10.03 18.3033C9.85995 18.3742 9.67578 18.4167 9.49162 18.4167Z" fill="#4A99D3"/>
<path d="M15.1584 18.4167C14.9742 18.4167 14.79 18.3742 14.62 18.3033C14.45 18.2325 14.2942 18.1333 14.1525 18.0058C14.025 17.8642 13.9259 17.7083 13.8409 17.5383C13.7842 17.3683 13.7417 17.1842 13.7417 17C13.7417 16.6317 13.8975 16.2633 14.1525 15.9942C14.6767 15.47 15.64 15.47 16.1642 15.9942C16.4192 16.2633 16.575 16.6317 16.575 17C16.575 17.1842 16.5325 17.3683 16.4617 17.5383C16.3909 17.7083 16.2917 17.8642 16.1642 18.0058C16.0225 18.1333 15.8667 18.2325 15.6967 18.3033C15.5267 18.3742 15.3425 18.4167 15.1584 18.4167Z" fill="#4A99D3"/>
</svg>
