<svg width="34" height="34" viewBox="0 0 34 34" fill="none" xmlns="http://www.w3.org/2000/svg">
<path d="M21.2502 32.2292H12.7502C10.8802 32.2292 9.32183 32.045 8.00433 31.6484C7.52267 31.5067 7.211 31.0392 7.23933 30.5433C7.5935 26.3075 11.886 22.9783 17.0002 22.9783C22.1143 22.9783 26.3927 26.2933 26.761 30.5433C26.8035 31.0533 26.4918 31.5067 25.996 31.6484C24.6785 32.045 23.1202 32.2292 21.2502 32.2292ZM9.52017 29.835C10.4552 30.0192 11.5177 30.1042 12.7502 30.1042H21.2502C22.4827 30.1042 23.5452 30.0192 24.4802 29.835C23.7293 27.115 20.6268 25.1033 17.0002 25.1033C13.3735 25.1033 10.271 27.115 9.52017 29.835Z" fill="#4A99D3"/>
<path d="M21.25 2.83333H12.75C5.66671 2.83333 2.83337 5.66667 2.83337 12.75V21.25C2.83337 26.605 4.44837 29.5375 8.30171 30.6283C8.61338 26.945 12.3959 24.0408 17 24.0408C21.6042 24.0408 25.3867 26.945 25.6984 30.6283C29.5517 29.5375 31.1667 26.605 31.1667 21.25V12.75C31.1667 5.66667 28.3334 2.83333 21.25 2.83333ZM17 20.0741C14.195 20.0741 11.9284 17.7934 11.9284 14.9884C11.9284 12.1834 14.195 9.91667 17 9.91667C19.805 9.91667 22.0717 12.1834 22.0717 14.9884C22.0717 17.7934 19.805 20.0741 17 20.0741Z" stroke="#4A99D3" stroke-width="1.5" stroke-linecap="round" stroke-linejoin="round"/>
<path d="M16.9999 21.1366C13.6141 21.1366 10.8657 18.3742 10.8657 14.9884C10.8657 11.6025 13.6141 8.85417 16.9999 8.85417C20.3857 8.85417 23.1341 11.6025 23.1341 14.9884C23.1341 18.3742 20.3857 21.1366 16.9999 21.1366ZM16.9999 10.9792C14.7899 10.9792 12.9907 12.7784 12.9907 14.9884C12.9907 17.2125 14.7899 19.0116 16.9999 19.0116C19.2099 19.0116 21.0091 17.2125 21.0091 14.9884C21.0091 12.7784 19.2099 10.9792 16.9999 10.9792Z" fill="#4A99D3"/>
</svg>
